<?xml version="1.0" standalone="no"?>
<!DOCTYPE svg PUBLIC "-//W3C//DTD SVG 20010904//EN"
 "http://www.w3.org/TR/2001/REC-SVG-20010904/DTD/svg10.dtd">
<svg version="1.0" xmlns="http://www.w3.org/2000/svg"
 width="24.000000pt" height="24.000000pt" viewBox="0 0 24.000000 24.000000"
 preserveAspectRatio="xMidYMid meet">

<g transform="translate(0.000000,24.000000) scale(0.100000,-0.100000)"
fill="#000000" stroke="none">
<path d="M63 220 c-34 -21 -63 -66 -63 -100 0 -54 65 -120 118 -120 57 0 122
64 122 120 0 56 -65 120 -122 120 -13 0 -37 -9 -55 -20z m-29 -86 c22 -9 20
-20 -4 -20 -11 0 -20 6 -20 13 0 15 2 15 24 7z m46 -15 c0 -6 -4 -7 -10 -4 -5
3 -10 11 -10 16 0 6 5 7 10 4 6 -3 10 -11 10 -16z m40 0 c0 -5 -4 -9 -10 -9
-5 0 -10 7 -10 16 0 8 5 12 10 9 6 -3 10 -10 10 -16z m81 11 c16 0 29 -4 29
-10 0 -5 -21 -9 -47 -8 -27 0 -42 3 -34 6 11 4 11 6 0 14 -11 7 -9 8 4 4 10
-3 32 -6 48 -6z"/>
</g>
</svg>
